<svg xmlns="http://www.w3.org/2000/svg" xmlns:xlink="http://www.w3.org/1999/xlink" width="1400" zoomAndPan="magnify" viewBox="0 0 1050 292.499991" height="390" preserveAspectRatio="xMidYMid meet" version="1.0"><defs><g/><clipPath id="d945014990"><rect x="0" width="1034" y="0" height="144"/></clipPath></defs><g transform="matrix(1, 0, 0, 1, 8, 73)"><g clip-path="url(#d945014990)"><g fill="#05356d" fill-opacity="1"><g transform="translate(0.957514, 116.468951)"><g><path d="M 78.140625 -61.171875 C 78.140625 -52.890625 75.4375 -46.304688 70.03125 -41.421875 C 64.625 -36.535156 57.285156 -34.09375 48.015625 -34.09375 L 22.296875 -34.09375 L 22.296875 0 L 10.4375 0 L 10.4375 -87.515625 L 47.265625 -87.515625 C 57.078125 -87.515625 64.675781 -85.210938 70.0625 -80.609375 C 75.445312 -76.015625 78.140625 -69.535156 78.140625 -61.171875 Z M 66.203125 -61.0625 C 66.203125 -72.363281 59.414062 -78.015625 45.84375 -78.015625 L 22.296875 -78.015625 L 22.296875 -43.484375 L 46.328125 -43.484375 C 59.578125 -43.484375 66.203125 -49.34375 66.203125 -61.0625 Z M 66.203125 -61.0625 "/></g></g></g><g fill="#05356d" fill-opacity="1"><g transform="translate(85.798159, 116.468951)"><g/></g></g><g fill="#05356d" fill-opacity="1"><g transform="translate(121.138114, 116.468951)"><g><path d="M 10.4375 0 L 10.4375 -87.515625 L 22.296875 -87.515625 L 22.296875 -9.6875 L 66.515625 -9.6875 L 66.515625 0 Z M 10.4375 0 "/></g></g></g><g fill="#05356d" fill-opacity="1"><g transform="translate(191.880082, 116.468951)"><g/></g></g><g fill="#05356d" fill-opacity="1"><g transform="translate(227.220022, 116.468951)"><g><path d="M 72.484375 0 L 62.484375 -25.59375 L 22.609375 -25.59375 L 12.546875 0 L 0.25 0 L 35.96875 -87.515625 L 49.4375 -87.515625 L 84.59375 0 Z M 42.546875 -78.5625 L 41.984375 -76.828125 C 40.953125 -73.390625 39.421875 -68.984375 37.390625 -63.609375 L 26.203125 -34.84375 L 58.9375 -34.84375 L 47.703125 -63.71875 C 46.546875 -66.582031 45.382812 -69.816406 44.21875 -73.421875 Z M 42.546875 -78.5625 "/></g></g></g><g fill="#05356d" fill-opacity="1"><g transform="translate(312.060681, 116.468951)"><g/></g></g><g fill="#05356d" fill-opacity="1"><g transform="translate(347.400621, 116.468951)"><g><path d="M 49.1875 -79.125 C 39.5 -79.125 31.960938 -76.007812 26.578125 -69.78125 C 21.203125 -63.550781 18.515625 -55.007812 18.515625 -44.15625 C 18.515625 -33.4375 21.316406 -24.816406 26.921875 -18.296875 C 32.535156 -11.773438 40.125 -8.515625 49.6875 -8.515625 C 61.945312 -8.515625 71.160156 -14.578125 77.328125 -26.703125 L 87.015625 -21.859375 C 83.410156 -14.328125 78.347656 -8.59375 71.828125 -4.65625 C 65.304688 -0.71875 57.738281 1.25 49.125 1.25 C 40.3125 1.25 32.679688 -0.582031 26.234375 -4.25 C 19.796875 -7.914062 14.890625 -13.15625 11.515625 -19.96875 C 8.140625 -26.78125 6.453125 -34.84375 6.453125 -44.15625 C 6.453125 -58.113281 10.21875 -69.046875 17.75 -76.953125 C 25.289062 -84.859375 35.726562 -88.8125 49.0625 -88.8125 C 58.382812 -88.8125 66.171875 -86.988281 72.421875 -83.34375 C 78.671875 -79.707031 83.265625 -74.304688 86.203125 -67.140625 L 74.96875 -63.421875 C 72.9375 -68.515625 69.675781 -72.40625 65.1875 -75.09375 C 60.695312 -77.78125 55.363281 -79.125 49.1875 -79.125 Z M 49.1875 -79.125 "/></g></g></g><g fill="#05356d" fill-opacity="1"><g transform="translate(439.259615, 116.468951)"><g/></g></g><g fill="#05356d" fill-opacity="1"><g transform="translate(474.599538, 116.468951)"><g><path d="M 10.4375 0 L 10.4375 -87.515625 L 76.828125 -87.515625 L 76.828125 -77.828125 L 22.296875 -77.828125 L 22.296875 -49.75 L 73.109375 -49.75 L 73.109375 -40.1875 L 22.296875 -40.1875 L 22.296875 -9.6875 L 79.375 -9.6875 L 79.375 0 Z M 10.4375 0 "/></g></g></g><g fill="#fff4e8" fill-opacity="1"><g transform="translate(559.440185, 116.468951)"><g/></g></g><g fill="#fe623f" fill-opacity="1"><g transform="translate(594.780133, 116.468951)"><g><path d="M 78.140625 -24.65625 C 78.140625 -16.875 75.300781 -10.816406 69.625 -6.484375 C 63.945312 -2.160156 56.0625 0 45.96875 0 L 10.4375 0 L 10.4375 -87.515625 L 42.234375 -87.515625 C 62.773438 -87.515625 73.046875 -80.429688 73.046875 -66.265625 C 73.046875 -61.097656 71.59375 -56.753906 68.6875 -53.234375 C 65.789062 -49.710938 61.691406 -47.347656 56.390625 -46.140625 C 63.347656 -45.316406 68.710938 -42.988281 72.484375 -39.15625 C 76.253906 -35.332031 78.140625 -30.5 78.140625 -24.65625 Z M 61.109375 -64.84375 C 61.109375 -69.5625 59.492188 -72.9375 56.265625 -74.96875 C 53.035156 -77 48.359375 -78.015625 42.234375 -78.015625 L 22.296875 -78.015625 L 22.296875 -50.3125 L 42.234375 -50.3125 C 48.566406 -50.3125 53.296875 -51.5 56.421875 -53.875 C 59.546875 -56.257812 61.109375 -59.914062 61.109375 -64.84375 Z M 66.140625 -25.59375 C 66.140625 -35.90625 58.894531 -41.0625 44.40625 -41.0625 L 22.296875 -41.0625 L 22.296875 -9.5 L 45.34375 -9.5 C 52.582031 -9.5 57.859375 -10.84375 61.171875 -13.53125 C 64.484375 -16.226562 66.140625 -20.25 66.140625 -25.59375 Z M 66.140625 -25.59375 "/></g></g></g><g fill="#fe623f" fill-opacity="1"><g transform="translate(679.620828, 116.468951)"><g/></g></g><g fill="#fe623f" fill-opacity="1"><g transform="translate(714.960823, 116.468951)"><g><path d="M 48.265625 -36.265625 L 48.265625 0 L 36.453125 0 L 36.453125 -36.265625 L 2.796875 -87.515625 L 15.84375 -87.515625 L 42.484375 -45.84375 L 69 -87.515625 L 82.046875 -87.515625 Z M 48.265625 -36.265625 "/></g></g></g><g fill="#fe623f" fill-opacity="1"><g transform="translate(799.801398, 116.468951)"><g/></g></g><g fill="#fe623f" fill-opacity="1"><g transform="translate(835.141441, 116.468951)"><g><path d="M 44.71875 -77.828125 L 44.71875 0 L 32.921875 0 L 32.921875 -77.828125 L 2.859375 -77.828125 L 2.859375 -87.515625 L 74.78125 -87.515625 L 74.78125 -77.828125 Z M 44.71875 -77.828125 "/></g></g></g><g fill="#fe623f" fill-opacity="1"><g transform="translate(912.839587, 116.468951)"><g/></g></g><g fill="#fe623f" fill-opacity="1"><g transform="translate(948.179462, 116.468951)"><g><path d="M 10.4375 0 L 10.4375 -87.515625 L 76.828125 -87.515625 L 76.828125 -77.828125 L 22.296875 -77.828125 L 22.296875 -49.75 L 73.109375 -49.75 L 73.109375 -40.1875 L 22.296875 -40.1875 L 22.296875 -9.6875 L 79.375 -9.6875 L 79.375 0 Z M 10.4375 0 "/></g></g></g></g></g></svg>